<svg preserveAspectRatio="none" width="100%" height="100%" overflow="visible" style="display: block;" viewBox="0 0 24 24" fill="none" xmlns="http://www.w3.org/2000/svg">
<g id="route">
<path id="Vector" d="M9 19.0006C9 20.6575 7.65685 22.0008 6 22.0008C4.34315 22.0008 3 20.6575 3 19.0006C3 17.3436 4.34315 16.0003 6 16.0003C7.65685 16.0003 9 17.3436 9 19.0006ZM9 19.0006H17.5C18.4283 19.0006 19.3185 18.6318 19.9749 17.9754C20.6313 17.3189 21 16.4286 21 15.5003C21 14.5719 20.6313 13.6816 19.9749 13.0252C19.3185 12.3688 18.4283 12 17.5 12H6.5C5.57174 12 4.6815 11.6312 4.02513 10.9748C3.36875 10.3184 3 9.42805 3 8.49972C3 7.57139 3.36875 6.68108 4.02513 6.02465C4.6815 5.36822 5.57174 4.99944 6.5 4.99944H15M15 4.99944C15 6.65643 16.3431 7.99968 18 7.99968C19.6569 7.99968 21 6.65643 21 4.99944C21 3.34245 19.6569 1.9992 18 1.9992C16.3431 1.9992 15 3.34245 15 4.99944Z" stroke="var(--stroke-0, #5A3DFB)" stroke-width="1.5" stroke-linecap="round"/>
</g>
</svg>
